<svg xmlns="http://www.w3.org/2000/svg" width="1024" height="1024" viewBox="220 220 600 600">
<g>
<path d="M 504.50 821.40 C503.40,821.21 495.52,820.61 487.00,820.05 C453.29,817.83 419.80,808.40 386.00,791.59 C336.70,767.07 292.83,726.07 263.19,676.81 C242.12,641.79 228.28,604.65 221.50,564.90 C217.53,541.67 216.68,529.46 217.27,504.04 C217.74,483.80 218.26,477.92 220.97,462.11 C224.67,440.59 228.20,426.47 234.38,408.50 C245.87,375.07 258.86,350.52 279.60,323.00 C361.06,214.93 506.43,177.35 629.97,232.41 C669.99,250.25 707.94,278.70 734.78,311.00 C776.57,361.27 801.37,423.35 806.07,489.50 C808.76,527.36 804.88,563.33 794.00,601.23 C782.17,642.47 758.51,686.53 731.61,717.44 C688.20,767.30 637.28,799.25 578.50,813.47 C558.28,818.37 554.66,818.92 532.50,820.52 C512.97,821.94 508.59,822.07 504.50,821.40 ZM 544.50 768.35 C569.64,764.51 591.37,757.79 613.50,747.02 C664.30,722.29 700.37,681.91 714.99,633.40 C718.21,622.73 719.94,611.00 718.29,611.00 C717.75,611.00 716.50,611.90 715.51,612.99 C709.08,620.10 684.89,633.46 667.00,639.80 C630.97,652.55 617.29,661.50 587.00,692.14 C575.72,703.54 562.09,716.70 556.70,721.37 C533.60,741.43 503.10,757.64 478.52,762.93 C468.24,765.14 467.66,767.17 477.00,768.25 C501.16,771.02 526.76,771.06 544.50,768.35 ZM 457.00 715.00 C475.06,711.44 492.07,704.24 508.55,693.17 C520.25,685.31 524.72,681.44 548.00,659.05 C568.99,638.85 571.10,636.95 581.01,629.34 C602.49,612.82 626.25,600.41 652.28,592.11 C670.09,586.44 686.40,576.58 697.73,564.64 C705.97,555.96 713.00,545.66 713.00,542.27 C713.00,538.80 704.99,520.15 698.88,509.42 C693.00,499.07 682.09,484.33 673.50,475.13 C670.20,471.59 660.72,462.73 652.44,455.44 C619.88,426.78 608.85,411.98 591.36,373.50 C580.49,349.57 575.96,342.02 566.64,332.29 L 561.65 327.08 L 564.58 325.96 C573.72,322.46 586.53,320.83 601.50,321.26 C609.75,321.50 617.91,322.24 619.64,322.91 C622.41,323.98 623.49,325.75 629.05,338.31 C648.23,381.63 657.94,395.28 687.50,420.48 C700.48,431.54 715.57,446.80 723.42,456.79 C726.12,460.24 728.82,462.89 729.42,462.70 C730.01,462.50 730.78,460.57 731.12,458.42 C731.46,456.26 732.30,451.12 733.00,447.00 C734.76,436.48 733.73,418.99 730.62,406.83 C722.87,376.45 702.81,349.19 674.50,330.54 C658.08,319.72 642.73,313.45 623.00,309.48 C610.89,307.04 608.00,306.81 595.00,307.26 C563.83,308.34 534.42,319.27 506.71,340.07 C500.89,344.44 487.43,356.46 476.81,366.78 C451.81,391.05 441.86,399.68 429.00,408.21 C416.06,416.79 401.34,424.03 380.73,431.93 C362.32,438.99 359.21,440.49 348.50,447.45 C333.27,457.35 315.60,478.27 315.60,486.40 C315.60,490.02 323.70,507.42 331.04,519.57 C343.33,539.92 355.68,554.32 375.44,571.32 C394.12,587.41 401.10,594.11 407.95,602.50 C417.27,613.93 423.84,624.43 430.72,638.88 C434.28,646.37 439.63,657.60 442.60,663.84 C448.99,677.24 453.51,684.28 460.71,692.05 C463.62,695.20 466.00,698.01 466.00,698.31 C466.00,699.17 455.42,702.02 446.06,703.69 C436.19,705.44 419.15,704.83 411.08,702.43 C405.53,700.78 406.52,702.35 395.94,678.50 C381.47,645.85 371.89,633.23 344.11,610.19 C329.78,598.31 314.74,583.10 305.50,571.15 C301.65,566.17 298.21,562.07 297.86,562.05 C296.53,561.95 295.79,565.86 294.74,578.50 C293.82,589.49 293.92,593.64 295.38,605.32 C299.05,634.59 310.35,656.67 332.49,677.84 C343.12,688.00 352.53,694.73 364.56,700.78 C395.40,716.29 426.31,721.04 457.00,715.00 ZM 311.86 413.14 C323.48,403.11 345.34,391.24 365.50,384.00 C379.25,379.06 396.59,369.71 408.30,360.92 C414.12,356.55 427.34,344.82 437.69,334.86 C468.95,304.73 488.10,290.28 512.33,278.52 C522.73,273.48 540.71,266.75 552.75,263.41 C553.44,263.22 554.00,262.66 554.00,262.16 C554.00,260.95 548.64,260.26 528.45,258.87 C483.92,255.80 441.96,263.95 403.88,283.06 C382.44,293.82 366.62,305.17 350.46,321.41 C333.02,338.93 322.68,354.20 314.55,374.41 C310.23,385.18 308.33,392.16 305.98,406.00 C304.32,415.78 304.27,418.00 305.67,418.00 C305.98,418.00 308.76,415.81 311.86,413.14 Z" fill="rgba(144,160,206,1)"/>
</g>
</svg>